<?xml version="1.0" encoding="UTF-8"?>
<svg width="200" height="200" viewBox="0 0 200 200" xmlns="http://www.w3.org/2000/svg">
  <!-- Background Circle -->
  <circle cx="100" cy="100" r="95" fill="#ffffff" stroke="#FF5A5F" stroke-width="5"/>
  
  <!-- Plate/Circle -->
  <circle cx="100" cy="100" r="65" fill="#f8f9fa" stroke="#FF5A5F" stroke-width="3"/>
  
  <!-- Food elements -->
  <g transform="translate(75, 75) scale(0.5)">
    <!-- Fork -->
    <path d="M50,10 L50,80 L60,90 L70,80 L70,10" fill="none" stroke="#484848" stroke-width="6" stroke-linecap="round"/>
    
    <!-- Knife -->
    <path d="M130,10 L130,80 L120,90 L110,80 L110,10" fill="none" stroke="#484848" stroke-width="6" stroke-linecap="round"/>
    
    <!-- Spoon -->
    <path d="M90,10 C60,10 60,40 90,40 C120,40 120,10 90,10 Z" fill="none" stroke="#484848" stroke-width="6" stroke-linecap="round"/>
    <path d="M90,40 L90,90" fill="none" stroke="#484848" stroke-width="6" stroke-linecap="round"/>
  </g>
  
  <!-- Rocket elements -->
  <g transform="translate(120, 50) rotate(45) scale(0.8)">
    <!-- Rocket body -->
    <path d="M0,0 L15,40 L-15,40 Z" fill="#FF5A5F"/>
    
    <!-- Rocket window -->
    <circle cx="0" cy="15" r="5" fill="#ffffff"/>
    
    <!-- Rocket fins -->
    <path d="M-15,40 L-25,50 L-15,50 Z" fill="#FF5A5F"/>
    <path d="M15,40 L25,50 L15,50 Z" fill="#FF5A5F"/>
    
    <!-- Rocket flame -->
    <path d="M-8,40 L0,55 L8,40" fill="#FFC107" stroke="#FFC107" stroke-width="2"/>
  </g>
  
  <!-- Text -->
  <text x="100" y="150" font-family="Arial, sans-serif" font-size="18" font-weight="bold" text-anchor="middle" fill="#484848">
    <tspan fill="#FF5A5F">Feast</tspan>Fleet
  </text>
</svg>